<svg xmlns="http://www.w3.org/2000/svg" width="512" height="512" viewBox="0 0 256 256" role="img" aria-label="TAPD MCP Server">
  <defs>
    <linearGradient id="bg" x1="34" y1="24" x2="222" y2="232" gradientUnits="userSpaceOnUse">
      <stop offset="0" stop-color="#22C55E" />
      <stop offset="0.48" stop-color="#10B981" />
      <stop offset="1" stop-color="#0F766E" />
    </linearGradient>
    <filter id="shadow" x="-20%" y="-20%" width="140%" height="140%" color-interpolation-filters="sRGB">
      <feDropShadow dx="0" dy="12" stdDeviation="14" flood-color="#064E3B" flood-opacity="0.28" />
    </filter>
  </defs>

  <rect width="256" height="256" rx="58" fill="url(#bg)" />

  <g transform="translate(0 -12)" filter="url(#shadow)">
    <path d="M128 55L184 82V123C184 158.5 164 185.8 128 201C92 185.8 72 158.5 72 123V82L128 55Z" fill="#ECFDF5" opacity="0.96" />
    <path d="M128 72L169 92V124C169 150.8 154.5 171.8 128 184C101.5 171.8 87 150.8 87 124V92L128 72Z" fill="url(#bg)" />

    <path d="M103 129L121 147L154 106" fill="none" stroke="#FFFFFF" stroke-width="12" stroke-linecap="round" stroke-linejoin="round" />

    <path d="M88 95L55 77" fill="none" stroke="#ECFDF5" stroke-width="8" stroke-linecap="round" opacity="0.86" />
    <path d="M168 95L201 77" fill="none" stroke="#ECFDF5" stroke-width="8" stroke-linecap="round" opacity="0.86" />
    <path d="M128 184V218" fill="none" stroke="#ECFDF5" stroke-width="8" stroke-linecap="round" opacity="0.86" />

    <circle cx="55" cy="77" r="12" fill="#ECFDF5" />
    <circle cx="201" cy="77" r="12" fill="#ECFDF5" />
    <circle cx="128" cy="218" r="12" fill="#ECFDF5" />
  </g>
</svg>
